<svg width="121" height="19" viewBox="0 0 121 19" fill="none" xmlns="http://www.w3.org/2000/svg">
<path d="M0.401855 0.449999H2.97686C3.06019 0.449999 3.13519 0.483333 3.20186 0.55C3.26852 0.599999 3.30186 0.666665 3.30186 0.749999V12.55L12.2769 0.849999C12.4935 0.583333 12.7685 0.449999 13.1019 0.449999H16.2769C16.3769 0.449999 16.4435 0.491666 16.4769 0.574999C16.5269 0.658333 16.5269 0.733333 16.4769 0.799999L3.60186 17.55C3.38519 17.8167 3.11019 17.95 2.77686 17.95H0.401855C0.318522 17.95 0.243522 17.925 0.176856 17.875C0.126856 17.8083 0.101856 17.7333 0.101856 17.65V0.749999C0.101856 0.666665 0.126856 0.599999 0.176856 0.55C0.243522 0.483333 0.318522 0.449999 0.401855 0.449999ZM7.71572 17.65L20.5657 0.9C20.7824 0.633332 21.0574 0.499999 21.3907 0.499999H23.7657C23.9657 0.499999 24.0657 0.599999 24.0657 0.799999V17.7C24.0657 17.9 23.9657 18 23.7657 18H21.3907C21.0574 18 20.7824 17.8667 20.5657 17.6L16.2407 11.95L11.8907 17.6C11.6741 17.8667 11.3991 18 11.0657 18H7.89072C7.80739 18 7.74072 17.9667 7.69072 17.9C7.64072 17.8167 7.64906 17.7333 7.71572 17.65ZM18.3157 9.25L20.8907 12.6V5.9L18.3157 9.25ZM27.3501 0.499999H29.9251C30.1418 0.499999 30.2501 0.599999 30.2501 0.799999V14.825H37.2501C37.3501 14.825 37.4168 14.8667 37.4501 14.95C37.5001 15.0333 37.5001 15.1083 37.4501 15.175L35.5751 17.6C35.3584 17.8667 35.0918 18 34.7751 18H27.3501C27.2668 18 27.1918 17.975 27.1251 17.925C27.0751 17.8583 27.0501 17.7833 27.0501 17.7V0.799999C27.0501 0.716666 27.0751 0.649999 27.1251 0.599999C27.1918 0.533332 27.2668 0.499999 27.3501 0.499999ZM38.103 9.175C38.103 7.89167 38.3364 6.7 38.803 5.6C39.2864 4.48333 39.928 3.525 40.728 2.725C41.5447 1.90833 42.503 1.275 43.603 0.824999C44.703 0.358332 45.8864 0.133332 47.153 0.149999C48.4197 0.166665 49.603 0.416666 50.703 0.9C51.803 1.38333 52.753 2.04167 53.553 2.875C54.3697 3.70833 55.0114 4.68333 55.478 5.8C55.9447 6.9 56.1697 8.075 56.153 9.325C56.1364 10.5917 55.8864 11.775 55.403 12.875C54.9197 13.975 54.2614 14.9333 53.428 15.75C52.6114 16.5667 51.653 17.2083 50.553 17.675C49.453 18.125 48.2697 18.35 47.003 18.35C45.753 18.35 44.578 18.1167 43.478 17.65C42.3947 17.1667 41.453 16.5167 40.653 15.7C39.853 14.8667 39.228 13.8917 38.778 12.775C38.328 11.6583 38.103 10.4583 38.103 9.175ZM41.303 9.3C41.303 10.1167 41.4614 10.8917 41.778 11.625C42.0947 12.3583 42.5197 13 43.053 13.55C43.5864 14.1 44.203 14.5333 44.903 14.85C45.603 15.1667 46.353 15.325 47.153 15.325C47.9364 15.3083 48.678 15.1333 49.378 14.8C50.078 14.4667 50.6864 14.025 51.203 13.475C51.7364 12.9083 52.153 12.2583 52.453 11.525C52.753 10.775 52.8947 9.99167 52.878 9.175C52.878 8.35833 52.7197 7.58333 52.403 6.85C52.0864 6.11667 51.6614 5.48333 51.128 4.95C50.5947 4.4 49.9697 3.96667 49.253 3.65C48.553 3.33333 47.8114 3.175 47.028 3.175C46.2447 3.19167 45.503 3.36667 44.803 3.7C44.103 4.01667 43.4947 4.45833 42.978 5.025C42.4614 5.575 42.053 6.21667 41.753 6.95C41.453 7.68333 41.303 8.46667 41.303 9.3ZM58.3929 0.749999C58.3929 0.666665 58.4179 0.599999 58.4679 0.55C58.5345 0.483333 58.6095 0.449999 58.6929 0.449999H71.8929C71.9762 0.449999 72.0429 0.483333 72.0929 0.55C72.1595 0.599999 72.1929 0.666665 72.1929 0.749999V4.425C72.1929 4.65833 72.1179 4.86667 71.9679 5.05L68.0179 10.225L73.6679 17.6C73.7179 17.6833 73.7179 17.7667 73.6679 17.85C73.6345 17.9167 73.5762 17.95 73.4929 17.95H70.3179C69.9845 17.95 69.7095 17.8167 69.4929 17.55L64.0179 10.425C63.9012 10.2917 63.9012 10.1667 64.0179 10.05L68.9429 3.625H61.5929V17.65C61.5929 17.85 61.4845 17.95 61.2679 17.95H58.6929C58.6095 17.95 58.5345 17.925 58.4679 17.875C58.4179 17.8083 58.3929 17.7333 58.3929 17.65V0.749999ZM75.4019 0.499999H77.7769C78.1102 0.499999 78.3852 0.633332 78.6019 0.9L91.4519 17.65C91.5185 17.7167 91.5269 17.7917 91.4769 17.875C91.4435 17.9583 91.3769 18 91.2769 18H88.1019C87.7685 18 87.4935 17.8667 87.2769 17.6L82.9519 11.95L78.6019 17.6C78.3852 17.8667 78.1102 18 77.7769 18H75.4019C75.3185 18 75.2435 17.975 75.1769 17.925C75.1269 17.8583 75.1019 17.7833 75.1019 17.7V0.799999C75.1019 0.716666 75.1269 0.649999 75.1769 0.599999C75.2435 0.533332 75.3185 0.499999 75.4019 0.499999ZM88.9019 0.799999C88.9019 0.599999 89.0102 0.499999 89.2269 0.499999H91.6019C91.9185 0.499999 92.1852 0.633332 92.4019 0.9L101.402 12.6V0.799999C101.402 0.599999 101.502 0.499999 101.702 0.499999H104.277C104.494 0.499999 104.602 0.599999 104.602 0.799999V17.7C104.602 17.7833 104.569 17.8583 104.502 17.925C104.435 17.975 104.36 18 104.277 18H101.902C101.569 18 101.294 17.8667 101.077 17.6L92.1019 5.9V12.75C92.1019 12.85 92.0519 12.9167 91.9519 12.95C91.8519 12.9833 91.7685 12.9583 91.7019 12.875L89.1269 9.525C88.9769 9.34167 88.9019 9.13333 88.9019 8.9V0.799999ZM78.3019 5.9V12.6L80.8769 9.25L78.3019 5.9ZM106.732 0.749999C106.732 0.666665 106.757 0.599999 106.807 0.55C106.873 0.483333 106.948 0.449999 107.032 0.449999H117.882C118.215 0.449999 118.49 0.583333 118.707 0.849999L120.557 3.275C120.623 3.35833 120.632 3.44167 120.582 3.525C120.548 3.59167 120.482 3.625 120.382 3.625H114.807V17.65C114.807 17.85 114.707 17.95 114.507 17.95H111.932C111.732 17.95 111.632 17.85 111.632 17.65V3.625H107.032C106.948 3.625 106.873 3.6 106.807 3.55C106.757 3.48333 106.732 3.40833 106.732 3.325V0.749999Z" fill="white"/>
</svg>
