<svg width="15" height="15" viewBox="0 0 15 15" fill="none" xmlns="http://www.w3.org/2000/svg">
<path d="M7.5 0L9.13833 1.38569L11.25 1.00481L11.976 3.02401L13.9952 3.75L13.6143 5.86168L15 7.5L13.6143 9.13832L13.9952 11.25L11.976 11.976L11.25 13.9952L9.13833 13.6143L7.5 15L5.86168 13.6143L3.75 13.9952L3.02401 11.976L1.00481 11.25L1.38569 9.13832L0 7.5L1.38569 5.86168L1.00481 3.75L3.02401 3.02401L3.75 1.00481L5.86168 1.38569L7.5 0Z" fill="#3C86F1"/>
<line y1="-0.5" x2="3.37735" y2="-0.5" transform="matrix(0.726696 0.686959 -0.672949 0.739689 4.3006 7.75928)" stroke="white"/>
<line y1="-0.5" x2="6.81521" y2="-0.5" transform="matrix(0.671249 -0.741232 0.725017 0.68873 6.75488 10.0794)" stroke="white"/>
</svg>
