<svg width="21" height="21" viewBox="0 0 21 21" fill="none" xmlns="http://www.w3.org/2000/svg">
<path fill-rule="evenodd" clip-rule="evenodd" d="M8.8382 0.418088C9.5588 -0.139362 10.5651 -0.139364 11.2857 0.418088L18.9595 6.35445C19.6939 6.92259 20.1239 7.79879 20.1239 8.72732V18.2171C20.1239 19.3217 19.2285 20.2171 18.1239 20.2171H14.0826C12.978 20.2171 12.0826 19.3217 12.0826 18.2171V11.7465H8.0413V18.2171C8.0413 19.3217 7.14586 20.2171 6.0413 20.2171L6.0413 18.2171V11.7465C6.0413 10.6419 6.93673 9.74648 8.0413 9.74648H12.0826C13.1872 9.74648 14.0826 10.6419 14.0826 11.7465V18.2171H18.1239V8.72732C18.1239 8.41781 17.9806 8.12574 17.7358 7.93636L10.0619 2L2.38813 7.93636C2.14332 8.12574 2 8.41781 2 8.72732V18.2171H6.0413V20.2171H2C0.89543 20.2171 0 19.3217 0 18.2171V8.72732C0 7.79879 0.429956 6.92259 1.16438 6.35445L8.8382 0.418088Z" fill="black"/>
</svg>
