<svg width="24" height="24" viewBox="0 0 24 24" fill="none" xmlns="http://www.w3.org/2000/svg">
<path fill-rule="evenodd" clip-rule="evenodd" d="M12.0043 2C9.07027 2 6.69177 4.38864 6.69177 7.33517C6.69177 10.2817 9.07027 12.6703 12.0043 12.6703C14.9383 12.6703 17.3168 10.2817 17.3168 7.33517C17.3168 4.38864 14.9383 2 12.0043 2ZM12.0043 3.44767C14.1422 3.44767 15.8753 5.18816 15.8753 7.33517C15.8753 9.48218 14.1422 11.2227 12.0043 11.2227C9.8664 11.2227 8.1333 9.48218 8.1333 7.33517C8.1333 5.18816 9.8664 3.44767 12.0043 3.44767ZM9.83005 14.8209C9.05233 14.8749 8.26621 14.9859 7.4908 15.1521C5.99418 15.4604 4.79685 16.0763 4.28724 17.0999C4.09503 17.5002 3.99839 17.9288 4.00002 18.3627C3.99944 18.7935 4.0953 19.2227 4.28062 19.6153C4.76994 20.6271 5.8278 21.1997 7.25624 21.5171L7.51213 21.5705C8.26648 21.7407 9.05284 21.8553 9.84446 21.909C9.91189 21.9288 10.0726 21.9472 10.248 21.9561L10.3922 21.9615C10.4664 21.9633 10.5506 21.9637 10.676 21.9637C11.8138 22.0263 12.9934 22.0081 14.1675 21.9081C14.7932 21.8653 15.4231 21.7835 16.0477 21.6636L16.5151 21.5666C18.0576 21.2623 19.2126 20.6836 19.7186 19.6164C20.0937 18.8241 20.0937 17.9047 19.7188 17.1127C19.214 16.0483 18.0737 15.4744 16.5034 15.1509C15.8873 15.0194 15.2612 14.922 14.6307 14.8599L14.1697 14.8209C12.7259 14.6935 11.2738 14.6935 9.83005 14.8209ZM14.0436 16.263L14.0562 16.264C14.7799 16.3149 15.4991 16.4165 16.2087 16.568C17.3751 16.8083 18.1667 17.2067 18.4171 17.7348C18.6057 18.133 18.6057 18.5958 18.4169 18.9944C18.1829 19.4879 17.472 19.8691 16.4445 20.1021L16.2195 20.1498C15.496 20.3112 14.7791 20.4152 14.0576 20.4647C12.9379 20.5599 11.8249 20.5771 10.7148 20.5171L10.3212 20.5103C10.2119 20.5048 10.1198 20.4942 10.0345 20.4771C9.35872 20.4261 8.75066 20.3454 8.16027 20.2283L7.80775 20.1537C6.63771 19.9244 5.83915 19.5243 5.58024 18.989C5.48964 18.797 5.44125 18.5803 5.44154 18.3609C5.44073 18.1428 5.48848 17.931 5.58118 17.7379C5.83293 17.2324 6.67919 16.7971 7.78606 16.569C8.50073 16.4159 9.21962 16.3144 9.94294 16.264C11.316 16.143 12.6837 16.143 14.0436 16.263Z" fill="black"/>
<path d="M7.4908 15.1521L7.54124 15.3969L7.54319 15.3965L7.4908 15.1521ZM9.83005 14.8209L9.84737 15.0703L9.85202 15.0699L9.83005 14.8209ZM4.28724 17.0999L4.06342 16.9884L4.06187 16.9917L4.28724 17.0999ZM4.00002 18.3627L4.25002 18.3631L4.25002 18.3618L4.00002 18.3627ZM4.28062 19.6153L4.05453 19.722L4.05556 19.7241L4.28062 19.6153ZM7.25624 21.5171L7.20201 21.7611L7.20517 21.7618L7.25624 21.5171ZM7.51213 21.5705L7.56716 21.3266L7.5632 21.3257L7.51213 21.5705ZM9.84446 21.909L9.91476 21.6691L9.8886 21.6615L9.86141 21.6596L9.84446 21.909ZM10.248 21.9561L10.2352 22.2058L10.2386 22.206L10.248 21.9561ZM10.3922 21.9615L10.3829 22.2114L10.3864 22.2115L10.3922 21.9615ZM10.676 21.9637L10.6898 21.7137H10.676V21.9637ZM14.1675 21.9081L14.1504 21.6587L14.1463 21.659L14.1675 21.9081ZM16.0477 21.6636L16.0949 21.9091L16.0986 21.9084L16.0477 21.6636ZM16.5151 21.5666L16.4667 21.3213L16.4642 21.3218L16.5151 21.5666ZM19.7186 19.6164L19.9445 19.7235L19.9445 19.7234L19.7186 19.6164ZM19.7188 17.1127L19.9447 17.0058L19.9447 17.0056L19.7188 17.1127ZM16.5034 15.1509L16.4512 15.3954L16.4529 15.3958L16.5034 15.1509ZM14.6307 14.8599L14.6552 14.6111L14.6517 14.6108L14.6307 14.8599ZM14.1697 14.8209L14.1477 15.0699L14.1486 15.07L14.1697 14.8209ZM14.0562 16.264L14.0365 16.5132L14.0387 16.5134L14.0562 16.264ZM14.0436 16.263L14.0216 16.512L14.0238 16.5122L14.0436 16.263ZM16.2087 16.568L16.1565 16.8125L16.1582 16.8128L16.2087 16.568ZM18.4171 17.7348L18.643 17.6278L18.643 17.6277L18.4171 17.7348ZM18.4169 18.9944L18.6428 19.1015L18.6429 19.1014L18.4169 18.9944ZM16.4445 20.1021L16.4963 20.3467L16.4998 20.3459L16.4445 20.1021ZM16.2195 20.1498L16.1677 19.9052L16.1651 19.9058L16.2195 20.1498ZM14.0576 20.4647L14.0405 20.2153L14.0364 20.2156L14.0576 20.4647ZM10.7148 20.5171L10.7283 20.2673L10.719 20.2671L10.7148 20.5171ZM10.3212 20.5103L10.3084 20.7602L10.3169 20.7603L10.3212 20.5103ZM10.0345 20.4771L10.0837 20.232L10.0686 20.2289L10.0533 20.2278L10.0345 20.4771ZM8.16027 20.2283L8.10848 20.4729L8.11166 20.4736L8.16027 20.2283ZM7.80775 20.1537L7.85954 19.9091L7.85584 19.9084L7.80775 20.1537ZM5.58024 18.989L5.35413 19.0957L5.35518 19.0978L5.58024 18.989ZM5.44154 18.3609L5.69154 18.3613L5.69154 18.36L5.44154 18.3609ZM5.58118 17.7379L5.35738 17.6264L5.3558 17.6297L5.58118 17.7379ZM7.78606 16.569L7.8365 16.8139L7.83844 16.8135L7.78606 16.569ZM9.94294 16.264L9.96029 16.5135L9.96488 16.5131L9.94294 16.264ZM6.94177 7.33517C6.94177 4.52571 9.20934 2.25 12.0043 2.25V1.75C8.9312 1.75 6.44177 4.25157 6.44177 7.33517H6.94177ZM12.0043 12.4203C9.20934 12.4203 6.94177 10.1446 6.94177 7.33517H6.44177C6.44177 10.4188 8.9312 12.9203 12.0043 12.9203V12.4203ZM17.0668 7.33517C17.0668 10.1446 14.7992 12.4203 12.0043 12.4203V12.9203C15.0774 12.9203 17.5668 10.4188 17.5668 7.33517H17.0668ZM12.0043 2.25C14.7992 2.25 17.0668 4.52571 17.0668 7.33517H17.5668C17.5668 4.25157 15.0774 1.75 12.0043 1.75V2.25ZM16.1253 7.33517C16.1253 5.0511 14.2813 3.19767 12.0043 3.19767V3.69767C14.0031 3.69767 15.6253 5.32523 15.6253 7.33517H16.1253ZM12.0043 11.4727C14.2813 11.4727 16.1253 9.61925 16.1253 7.33517H15.6253C15.6253 9.34512 14.0031 10.9727 12.0043 10.9727V11.4727ZM7.8833 7.33517C7.8833 9.61925 9.72733 11.4727 12.0043 11.4727V10.9727C10.0055 10.9727 8.3833 9.34512 8.3833 7.33517H7.8833ZM12.0043 3.19767C9.72733 3.19767 7.8833 5.0511 7.8833 7.33517H8.3833C8.3833 5.32523 10.0055 3.69767 12.0043 3.69767V3.19767ZM7.54319 15.3965C8.30715 15.2328 9.08155 15.1234 9.84736 15.0703L9.81274 14.5715C9.02311 14.6263 8.22527 14.739 7.43841 14.9076L7.54319 15.3965ZM4.51104 17.2113C4.96805 16.2934 6.06715 15.7006 7.54124 15.3969L7.44036 14.9072C5.92121 15.2201 4.62565 15.8592 4.06344 16.9885L4.51104 17.2113ZM4.25002 18.3618C4.24853 17.966 4.33657 17.5747 4.51261 17.2081L4.06187 16.9917C3.85349 17.4256 3.74825 17.8915 3.75002 18.3637L4.25002 18.3618ZM4.5067 19.5086C4.33712 19.1493 4.24949 18.7567 4.25002 18.3631L3.75002 18.3624C3.74939 18.8303 3.85348 19.296 4.05454 19.722L4.5067 19.5086ZM7.31047 21.273C5.90835 20.9615 4.94491 20.4146 4.50568 19.5064L4.05556 19.7241C4.59498 20.8395 5.74726 21.4379 7.20201 21.7611L7.31047 21.273ZM7.5632 21.3257L7.30731 21.2723L7.20517 21.7618L7.46105 21.8152L7.5632 21.3257ZM9.86141 21.6596C9.08241 21.6067 8.30879 21.4939 7.56715 21.3266L7.4571 21.8143C8.22418 21.9874 9.02327 22.1038 9.82752 22.1585L9.86141 21.6596ZM10.2607 21.7065C10.0833 21.6974 9.95032 21.6795 9.91476 21.6691L9.77417 22.149C9.87345 22.178 10.0618 22.197 10.2352 22.2058L10.2607 21.7065ZM10.4016 21.7117L10.2573 21.7063L10.2386 22.206L10.3829 22.2114L10.4016 21.7117ZM10.676 21.7137C10.5507 21.7137 10.469 21.7133 10.398 21.7116L10.3864 22.2115C10.4638 22.2133 10.5505 22.2137 10.676 22.2137V21.7137ZM14.1463 21.659C12.9836 21.758 11.8157 21.776 10.6897 21.7141L10.6623 22.2133C11.812 22.2766 13.0033 22.2581 14.1887 22.1572L14.1463 21.659ZM16.0006 21.4181C15.3858 21.5361 14.7659 21.6166 14.1505 21.6587L14.1846 22.1575C14.8205 22.114 15.4604 22.0309 16.0949 21.9091L16.0006 21.4181ZM16.4642 21.3218L15.9969 21.4188L16.0986 21.9084L16.5659 21.8113L16.4642 21.3218ZM19.4927 19.5093C19.0393 20.4654 17.9877 21.0212 16.4667 21.3213L16.5635 21.8118C18.1275 21.5033 19.3858 20.9017 19.9445 19.7235L19.4927 19.5093ZM19.4928 17.2197C19.8357 17.9439 19.8357 18.7848 19.4926 19.5094L19.9445 19.7234C20.3518 18.8634 20.3518 17.8654 19.9447 17.0058L19.4928 17.2197ZM16.4529 15.3958C18.0037 15.7152 19.0407 16.2662 19.4929 17.2199L19.9447 17.0056C19.3873 15.8303 18.1437 15.2336 16.5538 14.906L16.4529 15.3958ZM14.6061 15.1087C15.2274 15.1699 15.8442 15.2658 16.4512 15.3954L16.5556 14.9064C15.9303 14.7729 15.295 14.6742 14.6552 14.6111L14.6061 15.1087ZM14.1486 15.07L14.6096 15.109L14.6517 14.6108L14.1908 14.5718L14.1486 15.07ZM9.85202 15.0699C11.2812 14.9438 12.7186 14.9438 14.1477 15.0699L14.1917 14.5719C12.7333 14.4432 11.2665 14.4432 9.80808 14.5719L9.85202 15.0699ZM14.076 16.0148L14.0633 16.0138L14.0238 16.5122L14.0365 16.5132L14.076 16.0148ZM16.2609 16.3235C15.5399 16.1696 14.8091 16.0664 14.0738 16.0146L14.0387 16.5134C14.7507 16.5635 15.4583 16.6634 16.1565 16.8125L16.2609 16.3235ZM18.643 17.6277C18.4851 17.2947 18.1714 17.0301 17.772 16.8218C17.3696 16.6119 16.856 16.4461 16.2591 16.3231L16.1582 16.8128C16.7278 16.9302 17.1931 17.0837 17.5407 17.2651C17.8914 17.4481 18.0987 17.6468 18.1912 17.8419L18.643 17.6277ZM18.6429 19.1014C18.8637 18.6351 18.8637 18.0938 18.643 17.6278L18.1911 17.8418C18.3476 18.1723 18.3477 18.5565 18.191 18.8874L18.6429 19.1014ZM16.4998 20.3459C17.0281 20.2261 17.487 20.0657 17.8496 19.8645C18.2097 19.6647 18.495 19.4132 18.6428 19.1015L18.191 18.8873C18.1048 19.069 17.9177 19.2549 17.607 19.4273C17.2987 19.5984 16.8883 19.7451 16.3892 19.8583L16.4998 20.3459ZM16.2713 20.3943L16.4963 20.3467L16.3927 19.8575L16.1677 19.9052L16.2713 20.3943ZM14.0746 20.7141C14.809 20.6638 15.5383 20.5579 16.2739 20.3938L16.1651 19.9058C15.4537 20.0645 14.7493 20.1667 14.0405 20.2153L14.0746 20.7141ZM10.7013 20.7667C11.8231 20.8274 12.9477 20.81 14.0787 20.7138L14.0364 20.2156C12.9282 20.3098 11.8268 20.3269 10.7283 20.2674L10.7013 20.7667ZM10.3169 20.7603L10.7105 20.767L10.719 20.2671L10.3254 20.2604L10.3169 20.7603ZM9.98525 20.7222C10.0855 20.7423 10.1903 20.754 10.3084 20.76L10.3339 20.2607C10.2335 20.2555 10.1541 20.2461 10.0837 20.232L9.98525 20.7222ZM8.11166 20.4736C8.71303 20.5928 9.33113 20.6747 10.0157 20.7264L10.0533 20.2278C9.38632 20.1774 8.7883 20.098 8.20888 19.9831L8.11166 20.4736ZM7.75597 20.3983L8.10849 20.4729L8.21205 19.9838L7.85953 19.9091L7.75597 20.3983ZM5.35518 19.0978C5.51737 19.4332 5.83419 19.6996 6.23749 19.9082C6.64357 20.1182 7.16034 20.2816 7.75967 20.399L7.85584 19.9084C7.28512 19.7965 6.81759 19.6452 6.46715 19.464C6.11394 19.2814 5.90201 19.0801 5.8053 18.8801L5.35518 19.0978ZM5.19154 18.3606C5.1912 18.6164 5.2475 18.8696 5.35414 19.0957L5.80633 18.8823C5.73179 18.7243 5.6913 18.5443 5.69154 18.3613L5.19154 18.3606ZM5.3558 17.6297C5.2466 17.8572 5.19059 18.1064 5.19154 18.3619L5.69154 18.36C5.69086 18.1793 5.73036 18.0048 5.80657 17.846L5.3558 17.6297ZM7.73561 16.3242C7.16538 16.4416 6.65367 16.6141 6.24661 16.8281C5.84579 17.0389 5.51735 17.3053 5.3574 17.6264L5.80496 17.8493C5.89676 17.665 6.11733 17.461 6.47929 17.2707C6.83502 17.0837 7.29987 16.9244 7.8365 16.8139L7.73561 16.3242ZM9.92558 16.0146C9.19043 16.0658 8.45985 16.169 7.73367 16.3246L7.83844 16.8135C8.54162 16.6628 9.2488 16.5629 9.96029 16.5134L9.92558 16.0146ZM14.0655 16.014C12.691 15.8927 11.3086 15.8927 9.92099 16.015L9.96488 16.5131C11.3234 16.3934 12.6764 16.3934 14.0216 16.512L14.0655 16.014Z" fill="black"/>
</svg>
