<svg width="24" height="24" viewBox="0 0 24 24" fill="none" xmlns="http://www.w3.org/2000/svg">
<path fill-rule="evenodd" clip-rule="evenodd" d="M12.3885 2C17.6968 2 22 6.20819 22 11.3993C22 16.5903 17.6968 20.7985 12.3885 20.7985C10.1181 20.7985 8.03162 20.0287 6.38702 18.7415L3.26295 21.7886L3.17983 21.8586C2.88977 22.0685 2.47858 22.0446 2.21612 21.7873C1.92743 21.5043 1.92804 21.0459 2.21749 20.7636L5.30482 17.7523C3.73506 16.0794 2.77692 13.8487 2.77692 11.3993C2.77692 6.20819 7.08015 2 12.3885 2ZM12.3885 3.44774C7.89777 3.44774 4.25735 7.00776 4.25735 11.3993C4.25735 15.7908 7.89777 19.3508 12.3885 19.3508C16.8791 19.3508 20.5196 15.7908 20.5196 11.3993C20.5196 7.00776 16.8791 3.44774 12.3885 3.44774Z" fill="black"/>
<path d="M6.38702 18.7415L6.0379 18.3836L6.35089 18.0783L6.69519 18.3478L6.38702 18.7415ZM3.26295 21.7886L3.61207 22.1466L3.59898 22.1593L3.58499 22.1711L3.26295 21.7886ZM3.17983 21.8586L3.50188 22.2411L3.48783 22.2529L3.47295 22.2637L3.17983 21.8586ZM2.21612 21.7873L1.86608 22.1443V22.1443L2.21612 21.7873ZM2.21749 20.7636L2.5666 21.1215L2.5666 21.1215L2.21749 20.7636ZM5.30482 17.7523L5.66944 17.4102L6.00502 17.7678L5.65394 18.1102L5.30482 17.7523ZM21.5 11.3993C21.5 6.4948 17.4312 2.5 12.3885 2.5V1.5C17.9623 1.5 22.5 5.92158 22.5 11.3993H21.5ZM12.3885 20.2985C17.4312 20.2985 21.5 16.3037 21.5 11.3993H22.5C22.5 16.8769 17.9623 21.2985 12.3885 21.2985V20.2985ZM6.69519 18.3478C8.25417 19.568 10.2328 20.2985 12.3885 20.2985V21.2985C10.0035 21.2985 7.80908 20.4895 6.07884 19.1353L6.69519 18.3478ZM2.91383 21.4307L6.0379 18.3836L6.73614 19.0994L3.61207 22.1466L2.91383 21.4307ZM2.85779 21.4762L2.9409 21.4062L3.58499 22.1711L3.50188 22.2411L2.85779 21.4762ZM2.56617 21.4303C2.65122 21.5137 2.79025 21.5234 2.88672 21.4536L3.47295 22.2637C2.9893 22.6137 2.30593 22.5756 1.86608 22.1443L2.56617 21.4303ZM2.5666 21.1215C2.47795 21.208 2.47779 21.3436 2.56617 21.4303L1.86608 22.1443C1.37706 21.6649 1.37813 20.8838 1.86837 20.4057L2.5666 21.1215ZM5.65394 18.1102L2.5666 21.1215L1.86837 20.4057L4.9557 17.3944L5.65394 18.1102ZM3.27692 11.3993C3.27692 13.7153 4.1822 15.8252 5.66944 17.4102L4.9402 18.0944C3.28792 16.3336 2.27692 13.9822 2.27692 11.3993H3.27692ZM12.3885 2.5C7.34571 2.5 3.27692 6.4948 3.27692 11.3993H2.27692C2.27692 5.92158 6.8146 1.5 12.3885 1.5V2.5ZM3.75735 11.3993C3.75735 6.72115 7.63222 2.94774 12.3885 2.94774V3.94774C8.16333 3.94774 4.75735 7.29437 4.75735 11.3993H3.75735ZM12.3885 19.8508C7.63222 19.8508 3.75735 16.0774 3.75735 11.3993H4.75735C4.75735 15.5042 8.16333 18.8508 12.3885 18.8508V19.8508ZM21.0196 11.3993C21.0196 16.0774 17.1447 19.8508 12.3885 19.8508V18.8508C16.6136 18.8508 20.0196 15.5042 20.0196 11.3993H21.0196ZM12.3885 2.94774C17.1447 2.94774 21.0196 6.72115 21.0196 11.3993H20.0196C20.0196 7.29437 16.6136 3.94774 12.3885 3.94774V2.94774Z" fill="black"/>
</svg>
