<svg width="29" height="29" viewBox="0 0 29 29" fill="none" xmlns="http://www.w3.org/2000/svg">
<g filter="url(#filter0_d)">
<path d="M8.52912 4.69902C7.26844 5.27395 5.9658 5.71699 4.91841 5.98344C4.09606 6.19263 3.38171 6.80021 3.26573 7.64078C2.6912 11.8048 3.70155 17.7087 9.57391 21.5053C11.3654 22.6636 13.6877 22.6618 15.4876 21.5165C21.4515 17.7213 22.6829 11.8121 21.8874 7.64418C21.7261 6.79871 20.941 6.26912 20.091 6.13404C18.7655 5.9234 17.5139 5.44652 16.4171 4.87555C14.1749 3.70836 10.829 3.65015 8.52912 4.69902Z" fill="url(#paint0_linear)"/>
</g>
<defs>
<filter id="filter0_d" x="1.125" y="1.95398" width="26.9794" height="26.4208" filterUnits="userSpaceOnUse" color-interpolation-filters="sRGB">
<feFlood flood-opacity="0" result="BackgroundImageFix"/>
<feColorMatrix in="SourceAlpha" type="matrix" values="0 0 0 0 0 0 0 0 0 0 0 0 0 0 0 0 0 0 127 0"/>
<feOffset dx="2" dy="2"/>
<feGaussianBlur stdDeviation="2"/>
<feColorMatrix type="matrix" values="0 0 0 0 0.0691472 0 0 0 0 0.0290278 0 0 0 0 0.183333 0 0 0 0.4 0"/>
<feBlend mode="normal" in2="BackgroundImageFix" result="effect1_dropShadow"/>
<feBlend mode="normal" in="SourceGraphic" in2="effect1_dropShadow" result="shape"/>
</filter>
<linearGradient id="paint0_linear" x1="12.6147" y1="1.95313" x2="12.6147" y2="23.0469" gradientUnits="userSpaceOnUse">
<stop stop-color="#66B4EC"/>
<stop offset="1" stop-color="#04B6CE"/>
</linearGradient>
</defs>
</svg>
